<svg version="1.0" xmlns="http://www.w3.org/2000/svg" width="682.667" height="682.667" viewBox="0 0 512 512"><path d="M259.3 43.1c-2.7 1-4.3 3.9-4.3 7.9 0 1.7-.7 4.7-1.5 6.8-1.7 4-8.2 11.2-10.1 11.2-.7 0-2.2 1.2-3.3 2.6l-2 2.6 2.1 5.6c3.5 9.5 2 17.8-4.4 24.2-1.8 1.8-4.8 4-6.8 4.8-4.3 1.8-13.9 1.9-17.1.1-4.8-2.6-9.3-.1-10.4 5.8-1.7 9.3-10 15.9-20.8 16.6-8.8.6-9.1 1.1-9.2 17.1 0 7.4-.3 13.7-.5 13.8-35 25.5-54.7 52.7-64.4 88.9-4.5 16.8-5.5 26.2-5.1 44.4.4 15.6.5 17.2 3.1 29.5 12.5 59.2 61.2 107.2 120.6 118.8 8.3 1.6 8.8 1.9 8.8 4.2 0 9 7.8 18.8 16.6 20.9 13.7 3.3 26.3-5.7 27.8-19.8l.3-3.4 10.4-2.4c49.9-11.1 89.9-44.5 109.8-91.5 8.7-20.6 12-38.6 11.6-62.3-.3-16.4-.5-17.9-3.1-30-3.7-17.4-10.4-34.1-19.8-49.2-3.1-5.1-6.2-9.8-6.9-10.5-.7-.7-2.5-3.1-4.2-5.3-4.8-6.5-19.6-20.6-27.7-26.5l-7.6-5.5-.4-35.5c-.4-37.4-.5-37.4-5.5-49-2.5-5.7-9.8-15.4-15.4-20.4-5.7-5.1-20.9-12.9-27.4-14.1-5.9-1.1-30.6-1.4-33.2-.4z"/></svg>