<?xml version="1.0" standalone="no"?>
<!DOCTYPE svg PUBLIC "-//W3C//DTD SVG 20010904//EN"
 "http://www.w3.org/TR/2001/REC-SVG-20010904/DTD/svg10.dtd">
<svg version="1.0" xmlns="http://www.w3.org/2000/svg"
 width="512.000000pt" height="512.000000pt" viewBox="0 0 512.000000 512.000000"
 preserveAspectRatio="xMidYMid meet">
<metadata>
Created by potrace 1.14, written by Peter Selinger 2001-2017
</metadata>
<g transform="translate(0.000000,512.000000) scale(0.100000,-0.100000)"
fill="#000000" stroke="none">
<path d="M2593 4689 c-27 -10 -43 -39 -43 -79 0 -17 -7 -47 -15 -68 -17 -40
-82 -112 -101 -112 -7 0 -22 -12 -33 -26 l-20 -26 21 -56 c35 -95 20 -178 -44
-242 -18 -18 -48 -40 -68 -48 -43 -18 -139 -19 -171 -1 -48 26 -93 1 -104 -58
-17 -93 -100 -159 -208 -166 -88 -6 -91 -11 -92 -171 0 -74 -3 -137 -5 -138
-350 -255 -547 -527 -644 -889 -45 -168 -55 -262 -51 -444 4 -156 5 -172 31
-295 125 -592 612 -1072 1206 -1188 83 -16 88 -19 88 -42 0 -90 78 -188 166
-209 137 -33 263 57 278 198 l3 34 104 24 c499 111 899 445 1098 915 87 206
120 386 116 623 -3 164 -5 179 -31 300 -37 174 -104 341 -198 492 -31 51 -62
98 -69 105 -7 7 -25 31 -42 53 -48 65 -196 206 -277 265 l-76 55 -4 355 c-4
374 -5 374 -55 490 -25 57 -98 154 -154 204 -57 51 -209 129 -274 141 -59 11
-306 14 -332 4z"/>
</g>
</svg>
